<svg width="60" height="60" viewBox="0 0 60 60" fill="none" xmlns="http://www.w3.org/2000/svg">
<circle cx="30" cy="30" r="30" fill="#9A3CEB" fill-opacity="0.2"/>
<g clip-path="url(#clip0_25_318)">
<path fill-rule="evenodd" clip-rule="evenodd" d="M35.0211 9.77705C37.0392 10.2768 38.9705 11.0774 40.7503 12.152C41.1071 12.3674 41.3912 12.6848 41.5657 13.0632C41.7403 13.4417 41.7973 13.8638 41.7294 14.275C41.494 15.7104 41.8524 16.8083 42.5211 17.4791C43.1919 18.15 44.2919 18.5062 45.7253 18.2708C46.1368 18.2025 46.5593 18.2593 46.9382 18.4339C47.3171 18.6085 47.6348 18.8928 47.8503 19.25C48.9248 21.0298 49.7254 22.9611 50.2253 24.9791C50.3259 25.384 50.3026 25.8098 50.1585 26.2013C50.0144 26.5927 49.756 26.932 49.4169 27.175C48.2336 28.0229 47.7086 29.05 47.7086 30C47.7086 30.95 48.2336 31.9791 49.4169 32.8271C49.7556 33.0699 50.0137 33.4088 50.1578 33.7998C50.3019 34.1909 50.3254 34.6162 50.2253 35.0208C49.7255 37.0388 48.9248 38.9702 47.8503 40.75C47.6348 41.1072 47.3171 41.3915 46.9382 41.566C46.5593 41.7406 46.1368 41.7974 45.7253 41.7291C44.2899 41.4937 43.194 41.8521 42.5232 42.5208C41.8524 43.1916 41.494 44.2916 41.7315 45.725C41.7998 46.1365 41.743 46.559 41.5684 46.9379C41.3939 47.3168 41.1096 47.6345 40.7524 47.85C38.9713 48.9249 37.0385 49.7255 35.019 50.225C34.6145 50.3251 34.1891 50.3016 33.7981 50.1575C33.407 50.0134 33.0681 49.7553 32.8253 49.4166C31.9794 48.2333 30.9503 47.7083 30.0003 47.7083C29.0524 47.7083 28.0211 48.2333 27.1753 49.4166C26.9324 49.7553 26.5936 50.0134 26.2025 50.1575C25.8114 50.3016 25.3861 50.3251 24.9815 50.225C22.962 49.7255 21.0293 48.9249 19.2482 47.85C18.891 47.6345 18.6067 47.3168 18.4321 46.9379C18.2575 46.559 18.2007 46.1365 18.269 45.725C18.5065 44.2916 18.1503 43.1937 17.4774 42.5229C16.8086 41.852 15.7107 41.4937 14.2753 41.7312C13.8641 41.7991 13.442 41.742 13.0635 41.5675C12.6851 41.3929 12.3677 41.1089 12.1524 40.752C11.0774 38.971 10.2768 37.0382 9.77736 35.0187C9.6772 34.6142 9.70069 34.1888 9.84479 33.7978C9.98889 33.4067 10.247 33.0678 10.5857 32.825C11.7669 31.9791 12.294 30.95 12.294 30C12.294 29.052 11.7669 28.0208 10.5857 27.175C10.247 26.9321 9.98889 26.5932 9.84479 26.2022C9.70069 25.8111 9.6772 25.3858 9.77736 24.9812C10.2769 22.9624 11.0776 21.0304 12.1524 19.25C12.3677 18.8931 12.6851 18.6091 13.0635 18.4345C13.442 18.26 13.8641 18.2029 14.2753 18.2708C15.7107 18.5062 16.8086 18.15 17.4794 17.4791C18.1503 16.8083 18.5065 15.7083 18.2711 14.275C18.2033 13.8638 18.2603 13.4417 18.4348 13.0632C18.6094 12.6848 18.8934 12.3674 19.2503 12.152C21.03 11.0775 22.9614 10.2768 24.9794 9.77705C25.3843 9.67644 25.8101 9.6997 26.2016 9.84382C26.5931 9.98794 26.9323 10.2463 27.1753 10.5854C28.0232 11.7666 29.0503 12.2937 30.0003 12.2937C30.9503 12.2937 31.9794 11.7666 32.8274 10.5854C33.0702 10.2467 33.4091 9.98858 33.8002 9.84448C34.1912 9.70038 34.6165 9.67689 35.0211 9.77705ZM35.2336 14.1729C33.8649 15.5416 32.0669 16.4583 30.0003 16.4583C27.9336 16.4583 26.1357 15.5437 24.7669 14.1708C23.9921 14.4272 23.2372 14.7405 22.5086 15.1083C22.5107 17.0458 21.8857 18.9625 20.4253 20.425C18.9649 21.8854 17.0461 22.5104 15.1086 22.5083C14.7419 23.2333 14.4294 23.9875 14.1711 24.7666C15.544 26.1354 16.4586 27.9333 16.4586 30C16.4586 32.0666 15.544 33.8645 14.1711 35.2333C14.4294 36.0125 14.744 36.7687 15.1086 37.4937C17.0461 37.4895 18.9628 38.1145 20.4253 39.577C21.8857 41.0354 22.5107 42.9541 22.5086 44.8916C23.2315 45.2583 23.9878 45.5708 24.7669 45.8291C26.1357 44.4562 27.9336 43.5416 30.0003 43.5416C32.0669 43.5416 33.8649 44.4583 35.2336 45.8291C36.0092 45.5728 36.7647 45.2595 37.494 44.8916C37.4899 42.9541 38.1149 41.0375 39.5774 39.575C41.0357 38.1146 42.9544 37.4916 44.8919 37.4916C45.2586 36.7687 45.5711 36.0125 45.8294 35.2333C44.4565 33.8645 43.5419 32.0666 43.5419 30C43.5419 27.9333 44.4586 26.1354 45.8294 24.7666C45.5731 23.9918 45.2597 23.2369 44.8919 22.5083C42.9544 22.5104 41.0378 21.8854 39.5753 20.425C38.1149 18.9645 37.4919 17.0458 37.4919 15.1083C36.7633 14.7405 36.0085 14.4293 35.2336 14.1729ZM30.0003 21.6666C32.2104 21.6666 34.33 22.5446 35.8928 24.1074C37.4556 25.6702 38.3336 27.7898 38.3336 30C38.3336 32.2101 37.4556 34.3297 35.8928 35.8925C34.33 37.4553 32.2104 38.3333 30.0003 38.3333C27.7901 38.3333 25.6705 37.4553 24.1077 35.8925C22.5449 34.3297 21.6669 32.2101 21.6669 30C21.6669 27.7898 22.5449 25.6702 24.1077 24.1074C25.6705 22.5446 27.7901 21.6666 30.0003 21.6666ZM30.0003 25.8333C28.8952 25.8333 27.8354 26.2723 27.054 27.0537C26.2726 27.8351 25.8336 28.8949 25.8336 30C25.8336 31.105 26.2726 32.1648 27.054 32.9462C27.8354 33.7276 28.8952 34.1666 30.0003 34.1666C31.1053 34.1666 32.1652 33.7276 32.9466 32.9462C33.728 32.1648 34.1669 31.105 34.1669 30C34.1669 28.8949 33.728 27.8351 32.9466 27.0537C32.1652 26.2723 31.1053 25.8333 30.0003 25.8333Z" fill="#9A3CEB"/>
</g>
<defs>
<clipPath id="clip0_25_318">
<rect width="50" height="50" fill="white" transform="translate(5 5)"/>
</clipPath>
</defs>
</svg>
